<svg height="512" viewBox="0 0 32 32" width="512" xmlns="http://www.w3.org/2000/svg"><g id="_06-Location" data-name="06-Location"><path d="m25 21.61a1 1 0 1 0 -.84 1.82c1.37.57 1.84 1.23 1.84 1.57 0 1.19-4 3-10 3s-10-1.81-10-3c0-.34.47-1 1.8-1.57a1 1 0 1 0 -.8-1.82c-2.49 1.12-3 2.46-3 3.39 0 3.28 6 5 12 5s12-1.72 12-5c0-.93-.51-2.27-3-3.39z"></path><path d="m15.45 25.83a1 1 0 0 0 1.1 0c.39-.26 9.45-6.38 9.45-13.83a10 10 0 0 0 -20 0c0 7.45 9.06 13.57 9.45 13.83zm.55-21.83a8 8 0 0 1 8 8c0 5.41-6.1 10.36-8 11.77-1.9-1.41-8-6.36-8-11.77a8 8 0 0 1 8-8z"></path><path d="m21 12a5 5 0 1 0 -5 5 5 5 0 0 0 5-5zm-8 0a3 3 0 1 1 3 3 3 3 0 0 1 -3-3z"></path></g></svg>